:SAMPLES-PER-SECOND 30
:FULLY-SPECIFIED
:DEGREES
79
root  -34.3665 34.2669 -4.74267 -20.5677 87.0946 -16.2225
RightUpLeg  -26.4104 -0.679005 -0.900646
RightLeg  78.48 10.4302 -2.12148
RightFoot  -7.62977 -0.299757 6.24489
RightToes  5.82075e-010 -1.59028e-015 9.93923e-017
Spine  38.0899 0.729784 -6.51339
Spine1  15.1902 -1.35974 -1.9971
HEad  -29.676 5.74565 9.60238
LeftShoulder1  9.93923e-017 0 1.22299e-017
LeftArm  31.7584 8.9327 -81.101
LeftForeArm  -31.8315 -29.4386 19.9224
LeftHand  0.541626 4.19217 1.68809
RightShoulder  1.98785e-016 -4.96962e-017 1.55301e-017
RightArm  17.7389 -13.1002 86.7631
RightForeArm  -29.1048 44.3096 -41.2657
RightHand  2.3554 -13.1193 -18.628
LeftUpLeg  -34.4883 -0.482084 -4.25045
LeftLeg  54.9895 -10.2145 2.37637
LeftFoot  -16.3512 0.0343637 3.20014
LeftToes  1.8463e-010 2.29954e-012 -3.51709e-011
80
root  -33.6074 35.244 -4.7185 -27.1451 86.9064 -22.7814
RightUpLeg  -26.9279 -0.087836 0.492525
RightLeg  71.5049 9.84445 -2.82356
RightFoot  -9.08121 -0.21576 6.17186
RightToes  5.82075e-010 -1.59028e-015 9.93923e-017
Spine  36.3906 0.392461 -6.3548
Spine1  14.702 -1.77571 -0.948425
HEad  -29.0041 6.19193 9.04004
LeftShoulder1  9.93923e-017 0 1.22299e-017
LeftArm  33.8453 11.7368 -81.7012
LeftForeArm  -37.4588 -24.1692 11.9651
LeftHand  0.477896 3.9301 2.61836
RightShoulder  1.98785e-016 -4.96962e-017 1.55301e-017
RightArm  24.2275 -15.2507 87.8439
RightForeArm  -29.3257 32.1442 -29.3775
RightHand  2.15157 -12.7897 -16.6898
LeftUpLeg  -30.2917 0.0502763 -3.5444
LeftLeg  50.2631 -10.331 1.53079
LeftFoot  -15.5867 0.00835019 2.8265
LeftToes  1.8463e-010 2.29954e-012 -3.51709e-011
81
root  -32.8609 36.1359 -4.6616 -30.2739 86.7778 -25.9067
RightUpLeg  -26.7839 0.368336 1.55445
RightLeg  63.4708 9.18707 -2.98425
RightFoot  -8.84834 -0.245016 6.59983
RightToes  5.82075e-010 -1.59028e-015 9.93923e-017
Spine  34.6242 0.218713 -6.29156
Spine1  14.206 -2.12311 0.299036
HEad  -28.4836 6.62596 8.13758
LeftShoulder1  9.93923e-017 0 1.22299e-017
LeftArm  18.8852 13.9623 -81.5833
LeftForeArm  -26.1592 -18.0229 0.772651
LeftHand  0.633179 4.62857 0.69165
RightShoulder  1.98785e-016 -4.96962e-017 1.55301e-017
RightArm  36.3281 -18.0901 88.3
RightForeArm  -42.5942 22.2707 -22.5474
RightHand  1.89279 -12.4264 -13.6463
LeftUpLeg  -26.2121 0.369311 -2.95898
LeftLeg  45.5106 -10.5326 0.77442
LeftFoot  -14.774 -0.0174462 2.1325
LeftToes  1.8463e-010 2.29954e-012 -3.51709e-011
82
root  -32.1174 36.9503 -4.58807 -33.8621 86.8666 -29.6062
RightUpLeg  -26.0348 0.289146 2.35502
RightLeg  54.4359 8.59429 -2.67556
RightFoot  -8.39721 -0.297996 7.25649
RightToes  5.82075e-010 -1.59028e-015 9.93923e-017
Spine  32.694 -0.0476342 -6.11303
Spine1  13.7358 -2.56256 1.63932
HEad  -27.9782 7.02593 7.06427
LeftShoulder1  9.93923e-017 0 1.22299e-017
LeftArm  6.84855 16.2055 -81.27
LeftForeArm  -14.4847 -11.4417 -5.10431
LeftHand  0.788628 5.22043 -3.55827
RightShoulder  1.98785e-016 -4.96962e-017 1.55301e-017
RightArm  22.6931 -21.2713 86.568
RightForeArm  -34.2682 18.2092 -8.09136
RightHand  1.66947 -12.3393 -9.90604
LeftUpLeg  -22.234 0.495801 -2.50097
LeftLeg  40.4681 -10.7472 0.145158
LeftFoot  -14.0605 -0.0326011 1.45786
LeftToes  1.8463e-010 2.29954e-012 -3.51709e-011
83
root  -31.367 37.6982 -4.50279 -38.3464 87.1077 -34.3958
RightUpLeg  -24.8349 -0.0523953 2.92286
RightLeg  44.6089 8.42469 -1.81817
RightFoot  -7.75152 -0.356443 7.61424
RightToes  5.82075e-010 -1.59028e-015 9.93923e-017
Spine  30.4782 -0.465944 -5.76441
Spine1  13.3672 -3.05958 2.80118
HEad  -27.2035 7.23663 5.95371
LeftShoulder1  9.93923e-017 0 1.22299e-017
LeftArm  5.6698 18.6119 -81.1064
LeftForeArm  -9.72358 -8.87917 -6.61011
LeftHand  0.830542 5.03252 -6.61408
RightShoulder  1.98785e-016 -4.96962e-017 1.55301e-017
RightArm  4.9355 -25.7679 83.7043
RightForeArm  -22.6371 12.9239 2.31806
RightHand  1.58125 -13.0049 -6.44395
LeftUpLeg  -18.3848 1.19903 -2.10881
LeftLeg  35.1316 -11.4775 -0.717598
LeftFoot  -13.4156 -0.0395103 1.06342
LeftToes  1.8463e-010 2.29954e-012 -3.51709e-011
84
root  -30.5821 38.3425 -4.39834 -40.4069 87.3385 -36.9114
RightUpLeg  -23.2674 0.374912 3.16589
RightLeg  34.5043 8.87233 -0.725817
RightFoot  -6.23674 -0.429693 7.1649
RightToes  5.82075e-010 -1.59028e-015 9.93923e-017
Spine  27.9985 -0.892402 -5.36434
Spine1  13.2557 -3.45569 3.53005
HEad  -26.199 7.25372 4.87485
LeftShoulder1  9.93923e-017 0 1.22299e-017
LeftArm  10.8705 21.2839 -80.9169
LeftForeArm  -11.5728 -10.9942 -5.76515
LeftHand  0.828395 4.90585 -7.0991
RightShoulder  1.98785e-016 -4.96962e-017 1.55301e-017
RightArm  0.20014 -31.529 80.9594
RightForeArm  -19.848 10.3316 5.07656
RightHand  1.53282 -13.7111 -4.05433
LeftUpLeg  -14.7891 -1.23194 -2.00599
LeftLeg  29.6942 -9.57325 0.226052
LeftFoot  -12.9195 -0.0341938 -0.607309
LeftToes  1.8463e-010 2.29954e-012 -3.51709e-011
85
root  -29.7739 38.8322 -4.27284 -41.0812 87.4962 -38.0497
RightUpLeg  -21.4829 2.27775 3.04583
RightLeg  24.8731 8.92814 -0.239853
RightFoot  -4.41495 -0.46056 6.08282
RightToes  5.82075e-010 -1.59028e-015 9.93923e-017
Spine  25.3283 -1.3001 -4.84058
Spine1  13.2717 -3.70866 3.84744
HEad  -25.2795 7.19528 3.95127
LeftShoulder1  9.93923e-017 0 1.22299e-017
LeftArm  19.9675 24.1828 -80.5427
LeftForeArm  -19.9168 -16.3658 -1.73077
LeftHand  0.841107 5.1256 -6.84291
RightShoulder  1.98785e-016 -4.96962e-017 1.55301e-017
RightArm  7.59949 -37.9605 78.5278
RightForeArm  -23.0737 12.4028 3.46706
RightHand  1.4462 -13.5114 -3.08036
LeftUpLeg  -11.6163 -2.73484 -1.87093
LeftLeg  25.2375 -8.28807 0.597024
LeftFoot  -12.8454 -0.029126 -1.69665
LeftToes  1.8463e-010 2.29954e-012 -3.51709e-011
